<svg xmlns="http://www.w3.org/2000/svg" version="1.1" xmlns:xlink="http://www.w3.org/1999/xlink" xmlns:svgjs="http://svgjs.com/svgjs" width="389" height="346"><svg width="389" height="346" viewBox="0 0 389 346" fill="none" xmlns="http://www.w3.org/2000/svg">
<path d="M388.318 230.81C389.174 262.871 357.113 293.852 321.409 314.852C308.91 322.228 296.005 328.343 283.862 332.884C244.788 347.497 211.917 346.375 187.634 345.61C187.275 345.565 186.96 345.565 186.601 345.565C185.836 345.52 185.026 345.52 184.261 345.474C144.06 343.811 103.366 335.133 67.5743 316.382C66.6309 315.886 65.6852 315.393 64.7418 314.852C33.8959 298.35 3.09295 274.787 0.215145 237.24C-1.22376 218.758 4.62236 199.962 15.7286 185.17C27.7353 169.206 45.2714 160.259 61.0993 148.702C72.2508 140.564 77.1964 128.781 82.4136 116.551C86.0561 108.053 90.0131 99.6437 94.5537 91.5486C97.0718 87.1414 99.6804 82.87 102.558 78.6891C122.658 49.4155 155.933 27.9678 191.186 22.9316C227.924 17.7168 262.998 34.8478 287.054 62.4133C301.579 79.0059 311.561 99.5102 315.878 121.139C319.43 138.811 315.787 160.933 329.547 174.783C345.511 190.838 368.443 186.071 381.438 206.079C387.913 216.016 388.185 226.403 388.318 230.81Z" fill="#DFEAF7"></path>
<path d="M258.958 166.684C291.593 138.725 301.294 87.6727 278.972 54.8209C266.103 35.8817 246.27 28.4013 236.529 25.5259C232.479 19.6298 222.214 6.51765 204.83 1.74117C174.515 -6.58731 148.206 17.4833 144.487 20.8852C109.653 52.7555 96.5433 130.592 144.101 168.618C174.999 193.322 225.361 195.469 258.958 166.684Z" fill="#002D53"></path>
<path d="M217.132 120.281H179.721V166.417H217.132V120.281Z" fill="#FFB3AE"></path>
<path d="M217.132 120.281V142.494C197.392 143.933 186.105 141.369 179.721 137.458V120.281H217.132Z" fill="#FF7A72"></path>
<path d="M254.086 92.5754C250.52 102.074 241.841 107.6 234.704 104.918C227.567 102.238 224.672 92.3657 228.241 82.8676C231.807 73.3694 240.486 67.8425 247.623 70.5249C254.76 73.205 257.653 83.0772 254.086 92.5754Z" fill="#FFB3AE"></path>
<path d="M148.775 92.5754C152.341 102.074 161.02 107.6 168.157 104.918C175.294 102.238 178.189 92.3657 174.62 82.8676C171.054 73.3694 162.375 67.8425 155.238 70.5249C148.101 73.205 145.208 83.0772 148.775 92.5754Z" fill="#FFB3AE"></path>
<path d="M236.241 83.7777C242.258 100.33 223.267 133.377 198.97 133.377C178.384 133.377 161.699 111.172 161.699 83.7777C161.699 53.9371 191.642 30.5407 198.97 34.1785C201.917 35.6412 199.496 40.6011 202.148 49.1154C208.475 69.4244 231.112 69.6721 236.241 83.7777Z" fill="#FFB3AE"></path>
<path d="M303.445 296.101H89.968V254.519C89.968 195.569 137.757 147.78 196.706 147.78C255.656 147.78 303.445 195.569 303.445 254.519V296.101Z" fill="#FFB042"></path>
<path d="M335.256 229.75H276.473V296.673H335.256V229.75Z" fill="#3D71F2"></path>
<path d="M353.971 263.44C353.971 269.267 349.218 273.987 343.391 273.987C340.104 273.987 337.174 272.491 335.253 270.146V284.338C337.76 285.348 340.528 285.867 343.391 285.867C355.794 285.867 365.851 275.842 365.851 263.44C365.851 251.038 355.794 240.98 343.391 240.98C340.528 240.98 337.76 241.502 335.253 242.51V256.701C337.174 254.357 340.104 252.861 343.391 252.861C349.221 252.861 353.971 257.58 353.971 263.44Z" fill="#3D71F2"></path>
<path d="M378.122 296.673H19.8142V314.85H378.122V296.673Z" fill="#D18C7E"></path>
<path d="M81.3134 255.443C80.0817 223.694 80.5248 183.66 91.0498 181.397C91.4119 181.318 92.6697 181.068 93.9347 181.718C102.454 186.109 92.6173 221.855 81.3134 255.443Z" fill="#40C1B0"></path>
<path d="M81.3133 255.443C65.7879 228.225 58.3028 223.28 54.4054 224.49C52.9331 224.947 51.8778 226.315 51.4871 227.587C48.7951 236.375 74.4237 251.495 81.3133 255.443Z" fill="#40C1B0"></path>
<path d="M81.313 255.443C81.313 255.443 95.7973 213.755 105.81 216.233C115.823 218.71 81.313 255.443 81.313 255.443Z" fill="#40C1B0"></path>
<path d="M58.5841 296.101H98.2206L101.73 247.574H55.075L58.5841 296.101Z" fill="#FF828A"></path>
<path d="M278.212 287.68C278.212 292.626 274.164 296.673 269.218 296.673H124.197C119.251 296.673 115.204 292.626 115.204 287.68V197.189C115.204 192.243 119.251 188.196 124.197 188.196H269.218C274.164 188.196 278.212 192.243 278.212 197.189V287.68Z" fill="white"></path>
<path d="M196.706 258.376C203.656 258.376 209.29 252.742 209.29 245.792C209.29 238.843 203.656 233.209 196.706 233.209C189.757 233.209 184.123 238.843 184.123 245.792C184.123 252.742 189.757 258.376 196.706 258.376Z" fill="#DFEAF7"></path>
<path d="M321.409 314.853C308.909 322.228 296.004 328.343 283.862 332.884C244.788 347.497 211.917 346.375 187.634 345.61C187.274 345.565 186.96 345.565 186.6 345.565C185.836 345.52 185.026 345.52 184.261 345.474C144.06 343.812 103.365 335.133 67.574 316.382C66.6306 315.886 65.6848 315.393 64.7415 314.853H321.409Z" fill="#BC7F72"></path>
</svg><style>@media (prefers-color-scheme: light) { :root { filter: none; } }
</style></svg>